<svg width="330" height="89" viewBox="0 0 330 89" fill="none" xmlns="http://www.w3.org/2000/svg">
<path d="M30.666 12.0088C52.2333 12.0088 61.2197 24.028 61.2197 48.4035C61.2197 73.3407 50.8855 84.9106 30.666 84.9106C8.87402 84.9106 0 73.0038 0 48.4035C-1.56e-05 22.6801 9.43578 12.0088 30.666 12.0088ZM52.7951 48.4035C52.7951 27.3978 47.5156 20.4334 30.666 20.4334C13.7045 20.4334 8.42499 26.4992 8.42499 48.4035C8.42499 69.6338 13.5921 76.486 30.666 76.486C46.6168 76.486 52.7951 69.5216 52.7951 48.4035Z" fill="white"/>
<path d="M76.2363 26.0489V31.1036C79.7185 27.2846 84.8856 25.4873 92.187 25.4873V33.9119H87.2446C80.1675 33.9119 76.2363 38.8543 76.2363 46.8299V84.4603H67.8113V26.0489H76.2363Z" fill="white"/>
<path d="M93.0637 55.0298C93.0637 36.4955 104.184 25.4873 120.585 25.4873C127.998 25.4873 133.839 28.183 138.108 32.6764V26.0489H146.533V84.4603H138.108V77.8328C133.839 82.4383 127.998 85.1343 120.585 85.1343C104.184 85.1343 93.0637 74.0137 93.0637 55.0298ZM116.765 76.1479H124.067C133.165 76.1479 138.108 69.7451 138.108 59.6355V50.4245C138.108 40.3147 133.165 33.9119 124.067 33.9119H116.765C107.667 33.9119 101.488 41.775 101.488 55.0298C101.488 68.2848 107.667 76.1479 116.765 76.1479Z" fill="white"/>
<path d="M161.402 12.5703V84.4613H152.978V12.5703H161.402Z" fill="white"/>
<path d="M179.107 12.6826H231.902V27.2855H179.107V12.6826ZM231.902 55.4803H193.71V84.4613H179.107V40.8774H231.902V55.4803Z" fill="white"/>
<path d="M288.645 26.0488L299.541 42.6737L310.437 26.0488H327.961L309.426 54.4683L329.758 84.4603H312.01L299.654 66.2629L287.073 84.4603H269.324L289.881 54.8052L271.122 26.0488L288.645 26.0488Z" fill="white"/>
<path d="M263.923 10.7275C258.011 4.82404 248.356 4.83129 242.452 10.7436C236.549 16.656 236.556 26.3113 242.468 32.2147C244.781 34.5238 247.668 35.9153 250.677 36.4161L250.685 46.5227C250.678 46.8593 250.739 47.1938 250.863 47.5067C250.987 47.8195 251.173 48.1045 251.408 48.3448C251.644 48.5851 251.926 48.7759 252.236 48.9061C252.547 49.0362 252.88 49.1032 253.217 49.1029C253.553 49.1027 253.886 49.0352 254.197 48.9046C254.507 48.7739 254.788 48.5827 255.024 48.342C255.259 48.1014 255.444 47.8162 255.568 47.5031C255.692 47.1901 255.752 46.8555 255.745 46.5189L255.737 36.4123C258.746 35.907 261.63 34.5112 263.939 32.1986C269.843 26.2863 269.836 16.631 263.923 10.7275ZM260.347 14.3087C264.324 18.2796 264.329 24.6459 260.358 28.6228C256.387 32.5997 250.021 32.6045 246.044 28.6335C242.067 24.6626 242.062 18.2964 246.033 14.3195C250.004 10.3426 256.371 10.3378 260.347 14.3087ZM257.477 54.3526C256.79 53.6662 255.84 53.2416 254.792 53.2433L251.647 53.2456C249.55 53.2472 247.851 54.9485 247.855 57.0437L248.958 84.1474L258.611 84.0912L258.59 57.0356C258.59 55.9871 258.164 55.0389 257.477 54.3526Z" fill="white"/>
</svg>
